<svg width="236" height="47" viewBox="0 0 236 47" xmlns="http://www.w3.org/2000/svg">
  <g fill="none">
    <path d="M25.4 11.22c-10.68-.64-15.32 4.21-13.4 12.26H0C-.35 9.1 9.07-.82 25.4.05v11.17z" fill="#25408D"/>
    <path d="M45.59 27.66c-.205 3.682-3.314 6.525-7 6.4L15 34.15v-5.3h25.21v-2.49H20.74c-3.75 0-7.1-2.74-7.1-6.49 0-4 3.86-6.46 7.81-6.46l22.74-.14v5.24H19.34v2.51h19.17c3.75 0 7.14 2.85 7.08 6.6m16.69-4.33l-2.45-4.43-2.48 4.43h4.93zM45.8 34.15l8.1-15.74c1.41-2.74 2.91-5.16 6-5.16s4.43 2.62 5.84 5.3l8.1 15.6-5.76-.08L65 28.62H54.63l-2.87 5.44-5.96.09zm32.93-20.82c2.37-1.07 4.63-.22 6.46 1.55l14.19 14V13.33h5.3v15.21c.186 2.14-.908 4.186-2.79 5.22-2.37 1.27-4.88.48-6.8-1.41L80.91 18.49v15.66l-5.28-.08V17.84c0-2 1.233-3.794 3.1-4.51m52.87 5.16H113v10.44h18.6V18.49zm-23.93-5.25H130c2.088-.148 4.12.724 5.45 2.34 1.072 1.134 1.66 2.64 1.64 4.2v7.73c.028 1.7-.666 3.33-1.91 4.49-1.33 1.514-3.288 2.327-5.3 2.2l-22.21-.08V13.24zm61.28-.05v5.36h-23.88V21h23.88v5.39l-23.73.06v2.2h23.73v5.53H147.1c-2.154.16-4.25-.743-5.61-2.42-1.138-1.133-1.76-2.685-1.72-4.29v-7.59c-.08-1.866.7-3.665 2.12-4.88 1.425-1.314 3.34-1.96 5.27-1.78l21.79-.03zm27.15 5.36h-18.25v2.51h18.25v-2.51zm-1.1-5.22c2.54 0 4.26 1.33 5.53 3.53 1.163 2.087 1.018 4.656-.37 6.6.83 1 1.316 2.242 1.38 3.54v7.08h-5.36v-7.8h-18.47v7.79h-5.47V13.31l22.76.02zm41 14.33c-.205 3.682-3.314 6.525-7 6.4l-23.61.08v-5.3h25.21v-2.48h-19.47c-3.75 0-7.11-2.74-7.11-6.49 0-4 3.87-6.46 7.82-6.46l22.74-.14v5.24h-24.85v2.51h19.17c3.75 0 7.14 2.85 7.08 6.6" fill="#FFF"/>
    <path d="M113.5 46.36c0-.29-.39-4.49-.39-4.49-.018-.333-.018-.667 0-1 0 0-.09.45-.24 1 0 0-1.18 4.09-1.31 4.49h-.92c-.12-.33-1.31-4.49-1.31-4.49-.15-.5-.24-1-.24-1 .022.333.022.667 0 1l-.4 4.49h-1.52l.83-7.8h1.79l1.21 4.36c.14.48.21.87.21.87s.08-.4.22-.87l1.28-4.36h1.78l.84 7.8h-1.83zm8.27-5.26c-.085-.308-.146-.622-.18-.94-.043.318-.11.632-.2.94l-.73 2.54h1.82l-.71-2.54zm1.42 5.26l-.48-1.66h-2.35l-.5 1.66h-1.64l2.54-7.8h1.79l2.53 7.8h-1.89zm8.28.12c-2.11 0-3.07-1.91-3.07-4s1-4 3.09-4c.597-.036 1.19.12 1.69.45l-.39 1.07c-.276-.17-.596-.254-.92-.24-1.2 0-1.59 1.34-1.59 2.68s.44 2.62 1.58 2.62c.314.013.625-.07.89-.24l.42 1.18c-.504.338-1.105.5-1.71.46m9.73-.1v-3.37h-1.97v3.37h-1.85v-7.8h1.85v3.22h1.97v-3.22h1.85v7.8m4.78-7.79h1.84v7.8h-1.84zm11.03 7.79L156.26 42c-.152-.265-.29-.54-.41-.82v5.19h-1.54v-7.8h1.62l2.39 4c.146.243.28.493.4.75-.014-.26-.014-.52 0-.78v-4h1.55v7.8l-1.42.02zm6.25 0v-7.8h3.99v1.24h-2.14v1.98h1.87v1.21h-1.87v2.14h2.14v1.23m6.61-3.6h-.36v2.51c.224.08.462.117.7.11.85 0 1.35-.34 1.35-1.24 0-.9-.43-1.38-1.69-1.38m.31-3.28c-.227-.008-.453.022-.67.09v2.3h.36c1.16 0 1.54-.37 1.54-1.22s-.4-1.17-1.24-1.17m.08 7c-.853.04-1.705-.113-2.49-.45v-7.12c.756-.328 1.576-.482 2.4-.45 2.05 0 3 .91 3 2.08-.008.827-.584 1.54-1.39 1.72.91.22 1.567 1.007 1.62 1.94 0 1.55-1.2 2.27-3.14 2.27m9.79-6.81c-1 0-1.18 1.41-1.18 2.73s.18 2.73 1.18 2.73S187 43.73 187 42.4c0-1.33-.2-2.73-1.18-2.73m0 6.81c-2.18 0-3-1.8-3-4s.87-4 3-4 3 1.82 3 4c0 2.18-.87 4-3 4m10.07.01c-.688.073-1.376-.148-1.892-.61-.516-.46-.813-1.118-.818-1.81v-5.5H195v5.49c-.023.26.067.52.246.71.18.19.432.297.694.29.53 0 .93-.35.93-1.05v-5.44h1.7v5.5c-.005.692-.302 1.35-.818 1.81-.516.462-1.204.683-1.892.61m14.2-.13h-1.62l-1-4.1c-.066-.274-.116-.55-.15-.83-.028.28-.075.557-.14.83l-1 4.1h-1.65l-1.76-7.8h1.81l.82 4.56c.08.44.11.88.11.88.034-.296.084-.59.15-.88l1-4.56H208l1 4.56c.09.43.14.88.14.88s0-.45.11-.88l.85-4.56h1.67l-1.71 7.8zm12.39-3.6h-.36v2.51c.225.08.462.117.7.11.85 0 1.35-.34 1.35-1.24 0-.9-.43-1.38-1.69-1.38m.31-3.28c-.227-.008-.453.022-.67.09v2.3h.36c1.16 0 1.54-.37 1.54-1.22s-.4-1.17-1.24-1.17m.08 7c-.853.04-1.705-.113-2.49-.45v-7.12c.756-.328 1.576-.48 2.4-.45 2.05 0 3 .91 3 2.08-.008.827-.584 1.54-1.39 1.72.924.208 1.597 1.004 1.65 1.95 0 1.55-1.2 2.27-3.14 2.27m9.94-.12h-1.6l-2.36-7.8h2l1.09 4.54c.1.42.18 1 .18 1s.08-.53.18-1l1.12-4.54h1.77l-2.38 7.8z" fill="#25408D"/>
    <path d="M113.5 46.36c0-.29-.39-4.49-.39-4.49-.018-.333-.018-.667 0-1 0 0-.09.45-.24 1 0 0-1.18 4.09-1.31 4.49h-.92c-.12-.33-1.31-4.49-1.31-4.49-.15-.5-.24-1-.24-1 .022.333.022.667 0 1l-.4 4.49h-1.52l.83-7.8h1.79l1.21 4.36c.14.48.21.87.21.87s.08-.4.22-.87l1.28-4.36h1.78l.84 7.8h-1.83zm8.27-5.26c-.085-.308-.146-.622-.18-.94-.043.318-.11.632-.2.94l-.73 2.54h1.82l-.71-2.54zm1.42 5.26l-.48-1.66h-2.35l-.5 1.66h-1.64l2.54-7.8h1.79l2.53 7.8h-1.89zm8.28.12c-2.11 0-3.07-1.91-3.07-4s1-4 3.09-4c.597-.036 1.19.12 1.69.45l-.39 1.07c-.276-.17-.596-.254-.92-.24-1.2 0-1.59 1.34-1.59 2.68s.44 2.62 1.58 2.62c.314.013.625-.07.89-.24l.42 1.18c-.504.338-1.105.5-1.71.46m9.73-.1v-3.37h-1.97v3.37h-1.85v-7.8h1.85v3.22h1.97v-3.22h1.85v7.8m4.78-7.79h1.84v7.8h-1.84zm17.28 7.79v-7.8h3.99v1.24h-2.14v1.98h1.87v1.21h-1.87v2.14h2.14v1.23" fill="#25408D"/>
  </g>
</svg>
