<?xml version="1.0" encoding="utf-8"?>
<!-- Generator: Adobe Illustrator 19.2.1, SVG Export Plug-In . SVG Version: 6.00 Build 0)  -->
<svg version="1.1" id="Layer_1" xmlns="http://www.w3.org/2000/svg" xmlns:xlink="http://www.w3.org/1999/xlink" x="0px" y="0px"
	 viewBox="0 0 188.6 75.3" style="enable-background:new 0 0 188.6 75.3;" xml:space="preserve">
<style type="text/css">
	.st0{fill:#010101;}
	.st1{fill:#AE2331;}
	.st2{fill:#FFFFFF;}
</style>
<g>
	<rect x="4.6" y="6.6" class="st0" width="106.7" height="57.6"/>
	<g>
		<path class="st1" d="M161.5,61.9c0.7,0.3,1.9,0.5,2.4-0.2c1.6-3.2-2.4-4.8-3.8-7c-0.7-1.1-1.6-2.1-1.5-3.6
			c0.4-1.9,2.2-2.8,3.7-3.3c3.2-0.9,3.2,2.6,5,4.1c1.6,0.7,2.4,2.5,4.4,2.4c1.1,0.1,1.8-0.4,2.2-1.3c0.5-2.5-1.3-3.6-3-4.8
			c-2.2-1.6-4.6-2.7-5.7-5.2c0.5-0.7,0.1-1.9,1.2-2.2c2.3-0.5,3.9,1.5,6.4,0.9c2.1-0.1,3.6-1.3,4.5-3.3c-0.8-3.5-4.1-0.7-6.1-2.4
			c-1.4-1.4-3.8-1.6-4.2-3.7c1.2-1.4,3.4-1.4,4.3-3.3c0.2-1.1,0.1-2.3-0.6-3c-2-0.6-3.2,0.6-5,0.6c-0.4,0.6-1.4,0.8-2.2,0.8
			c-0.5-0.6-1.6-1-1.7-1.9c1.3-1.9,3.1-2.7,4-4.8c0.2-1.5,0.7-3.4-0.8-4.2c-4.8-0.6-4.4,5.3-8.8,5.7c-0.7-0.2-1.1-0.7-1.5-1.4
			c-0.7-3,0.4-5.6-0.1-8.5c-0.4-0.7-1.1-1.5-1.9-1.5c-0.5,0.2-1.1,0.5-1.4,1c-0.9,2.5,0.7,5.9-1.4,8c-0.2,0.1-0.4,0.2-0.6,0.3
			c-0.6,0.3-1.3,0.4-2.1,0.2c-0.7-0.4-1.5-0.6-1.8-1.5c-0.3-2.7-2.2-4.6-3.6-6.9c-0.5-0.5-1,0-1.4,0.3c-1.5,3-0.4,6.7,0.3,9.6
			c-0.1,0.2-0.1,0.8-0.5,0.5c-2.7-1.9-5.2-3.9-7.9-5.5l-0.1-0.5c2.2-3.8,5.6-7.4,9.3-9.2c2.4-0.6,5.6,0.5,7.8-0.4
			c0.7-0.3,1.2-0.8,1.6-1.5c0.4-0.7,0.3-1.9-0.3-2.4c-0.4-0.2-0.9-0.4-1.3-0.5c-2-0.5-4.5-0.3-6.3,0.3c-6.4,1.2-11.2,6.2-15.4,10.9
			c-3,3.8-5.4,7.8-7.3,12c-2,5.5-2.8,12.5-1.4,18.5c0.7,2.9,2,5.5,2.6,8.5c1.2,1.9,0.9,5.1,3.8,5.6c0.8,0.4,1.4-0.3,2-0.6
			c-0.3-3.5-1.9-6.7-2.5-10.2c-0.1-1-1.4-2.1-0.3-2.9c5,2,10.4,0.3,15.8,0.2c0.9,0.2,1,1.3,1.5,1.9c0,4.9-5.2,5.8-8,8.8
			c-1.3,3-3.8,4.6-5.8,6.6l-0.1,1.2c0.7,0.7,1.4,1.7,2.4,1.3c4-2.2,5.6-7.2,9.8-9.6c0.5-0.4,0.8-1.4,1.5-1.6
			c0.2,0.1,0.2,0.3,0.2,0.5c-1.9,2.2-3,4.7-4.3,7.1c-0.8,2.2-2.9,3.8-2.9,6.2c1,0.6,2.3,1.5,3.6,0.8c1.2-0.8,0.7-2.4,1.3-3.5
			c2.2-4.1,3.2-8.7,6-12.6c0.8-0.4,1.4-0.9,2.3-0.4c0.8,0.6,1.4,1.4,1.4,2.3c-0.5,3.7-1.4,7.2-2.4,10.6c-0.1,1.2-1.3,3,0.2,3.9
			c0.7,0.3,1.5,0.3,2.1,0c0.1-0.2,0.2-0.4,0.3-0.6c1.5-3.1,1.7-6.8,3-10c0.5-1.5-1.1-4.1,1-4.7c1-0.4,1.9,0.1,2.6,0.8
			C158.7,56,158.8,59.8,161.5,61.9 M138.5,29.1c0,0.8-0.8,0.9-1.3,1.3c-3.5,0.4-7.2-1.7-10.4,0.1c-0.9,0.6-0.9,1.7-0.9,2.6
			c2.1,3.5,6.9,4.2,10.7,3.7c0.5,0,1,0.4,1.2,0.8c0,0.7,0.4,1.5-0.4,2.1c-1.4,0.7-2.8,0.4-4.4,0.6c-3.3,0.2-7.3,1.3-9.3-1.8
			c-1.6-5.7,0.6-11.4,4.2-15.6c0.6-0.9,1.2-2.2,2.4-2.6c2.1,2.6,4.4,4.6,7.2,6.6C138.3,27.3,138.7,28.2,138.5,29.1 M149.9,48.1
			c-0.2-0.1-0.4-0.2-0.6-0.3c-3.1-1.5-5.1-4.8-7-7.7s-1.5-6.9,0.4-9.7c1.5-2.2,3.9-3.6,6.6-4.2c0.7-0.1,1.4-0.2,2.2-0.3
			c5.2-0.5,8.5,3.2,11.3,6.5c1.2,2.7,1.4,6.7-0.1,9.3c-0.9,1.3-2,2.5-3.3,3.3C156.9,47.7,153.5,48.8,149.9,48.1"/>
		<path class="st1" d="M184,37.2c-0.1-2.9-1.8-5.2-2.6-7.8c-0.9-1.3-1.6-3-2.5-4.3c-0.5-0.5-1.2-0.4-1.8-0.1v3.4
			c0.3,1.1,0.6,2.3,1,3.3c1.1,2.1,2,4,2.5,6.3c1.1,6.4-2,11.1-4.6,15.9c-2.8,6.3-8.7,11.7-13.1,16.1c-0.9,0.5-2.4,0.8-2.4,2.1
			c0.1,0.9,0.5,1.3,1.3,1.7c1,0.1,2-0.2,3-0.5c1.7-1.2,4.2-1.3,5-3.6c4.7-4.6,8.3-10.6,11.1-16.3C184,48.8,185,43.1,184,37.2"/>
		<path class="st1" d="M163,13c1.9,0.1,4.9,1,6.1-0.7c0.4-1.1-0.2-2.1-0.7-2.8c-2.2-0.7-3.7-3.2-6.6-2.2c-0.7,0.8-1.7,1.7-1.4,3.2
			C160.6,11.7,161.8,12.6,163,13"/>
		<path class="st2" d="M14.9,42.2l0.3,0.3c-0.6,1.8-0.6,2.4-0.6,4.1c0,2.3,0,3.9,0.1,4.7c0.1,1.2,0.2,2.8,1.6,2.8
			c1.7,0,1.9-3.8,1.9-5.4c0-3.2,0.1-6.7-2.8-11.6c-3.8-6-4.2-11.2-4.2-14c0-4.1,0.7-8.9,5.2-8.9c4.4,0,5.3,4.9,5.3,9.9v1.7l-3.9,3
			l-0.3-0.3c0.6-1.8,0.7-2.5,0.7-4.7c0-1.6,0-5.2-0.6-6.2c-0.2-0.3-0.5-0.6-1.1-0.6c-1.6,0-1.6,3.8-1.6,5.3c0,6.6,0.8,8,3.2,12.1
			c2.4,4.2,3.9,7,3.9,13.1c0,3.2-0.4,9.4-5.5,9.4c-4.5,0-5.1-5-5.1-8.3v-1.9L14.9,42.2z"/>
		<path class="st2" d="M37,55.4c0.4,0.3,0.7,0.5,1.3,0.6v0.5h-6.2V56c0.6-0.1,1-0.3,1.3-0.6v-40c-0.4-0.3-0.7-0.5-1.3-0.5v-0.4h6.2
			v0.4C37.8,15,37.5,15,37,15.4V55.4z"/>
		<path class="st2" d="M60.6,51c0,3.3-1.4,5.8-5.2,5.8c-3.6,0-5.3-2.3-5.3-5.8V19.9c0-3.6,1.9-5.7,5.2-5.7c3.6,0,5.3,2.2,5.3,5.7V51
			z M57,19.3c0-1.6-0.5-2.6-1.7-2.6c-1.4,0-1.7,1.3-1.7,2.6v32.3c0,1.5,0.4,2.6,1.8,2.6c1.5,0,1.7-1.5,1.7-2.6L57,19.3L57,19.3z"/>
		<path class="st2" d="M83.2,50.5c0,3.4-1.2,6.3-4.7,6.3c-3.7,0-5-2.7-5-6.6V15.5c-0.5-0.4-0.7-0.5-1.3-0.6v-0.4h6.2v0.4
			c-0.6,0.1-0.8,0.2-1.3,0.6v35c0,2.1,0,3.6,1.6,3.6s1.9-1.7,1.9-3.9V15.5c-0.5-0.4-0.7-0.5-1.3-0.6v-0.4h5.2v0.4
			c-0.5,0.1-0.8,0.2-1.3,0.6L83.2,50.5L83.2,50.5z"/>
		<path class="st2" d="M104.5,55.4c0.4,0.4,0.7,0.5,1.3,0.6v0.5h-6.3V56c0.6-0.1,0.9-0.3,1.3-0.6l-1.5-16.9h-0.1l-2,16.9
			c0.3,0.4,0.6,0.5,1.3,0.6v0.5h-5.7V56c0.6-0.1,0.9-0.3,1.3-0.6l3.5-19.5l-2.9-20.5c-0.5-0.3-0.7-0.5-1.3-0.5v-0.4h5.9v0.4
			c-0.8,0.1-1.1,0.2-1.3,0.5l1.5,16h0.1l1.7-16c-0.4-0.3-0.7-0.5-1.2-0.5v-0.4h5.4v0.4c-0.6,0.1-0.7,0.1-1.1,0.3
			c-0.1,0.1-0.1,0.2-0.2,0.2L101.3,33L104.5,55.4z"/>
	</g>
</g>
</svg>
