<svg id="Laag_1" data-name="Laag 1" xmlns="http://www.w3.org/2000/svg" viewBox="0 0 595.28 255.4"><defs><style>.cls-1{fill:#231f20;}.cls-2{fill:#fff;}</style></defs><title>logo-robocup</title><path class="cls-1" d="M158.68,86.54H124.1c-6.05,0-6-5.76-6-5.76V46.2c0-5.76,6-5.76,6-5.76h34.58c6.05,0,5.5,5.76,5.5,5.76V80.78c0,5.76-5.5,5.76-5.5,5.76m17-17.29V46.2c0-17.58-17-17.29-17-17.29H124c-17.58,0-17.42,17.29-17.42,17.29V80.78c0,17.58,17.55,17.29,17.55,17.29h34.58c17.58,0,17-17.29,17-17.29V69.25Z"/><path class="cls-1" d="M325.88,86.54H291.3c-6.05,0-6-5.76-6-5.76V46.2c0-5.76,6-5.76,6-5.76h34.58c6.05,0,5.5,5.76,5.5,5.76V80.78c0,5.76-5.5,5.76-5.5,5.76m17-17.29V46.2c0-17.58-17-17.29-17-17.29H291.3c-17.58,0-17.55,17.29-17.55,17.29V80.78c0,17.58,17.55,17.29,17.55,17.29h34.58c17.58,0,17-17.29,17-17.29V69.25Z"/><path class="cls-1" d="M511.58,69.25V34.67a5.76,5.76,0,0,0-11.53,0V80.78c0,5.76-5.5,5.76-5.5,5.76H460c-6.05,0-6-5.76-6-5.76V34.67a5.76,5.76,0,0,0-11.53,0V80.78c0,17.58,17.55,17.29,17.55,17.29h34.58c17.58,0,17-17.29,17-17.29V69.25Z"/><path class="cls-1" d="M259.31,69.25V46.2c0-17.58-17-17.29-17-17.29H207.44V40.43h34.84c6.05,0,5.5,5.76,5.5,5.76V80.78c0,5.76-5.5,5.76-5.5,5.76H207.7c-6.05,0-6-5.76-6-5.76V5.86a5.76,5.76,0,0,0-11.53,0V80.78c0,17.58,17.55,17.29,17.55,17.29h34.58c17.58,0,17-17.29,17-17.29V69.25Z"/><path class="cls-1" d="M578.16,28.91H543.58S526,28.62,526,46.2v74.92h0.13a5.7,5.7,0,1,0,11.39,0h0V46.2s0-5.76,6-5.76h34.58s5.5,0,5.5,5.76V80.78s0.55,5.76-5.5,5.76H543.32V98.06h34.84s17,0.29,17-17.29V46.2s0.55-17.29-17-17.29"/><path class="cls-1" d="M75.18,0H46.37C21,0,0,20.75,0,46.1V92.39a5.76,5.76,0,1,0,11.53,0V46.1A34.84,34.84,0,0,1,46.37,11.53H75.18c6.05,0,5.5,5.76,5.5,5.76V35.39h0v17s0.55,5.76-5.5,5.76H34.48V69.7H63.62L78.14,98.06H92.33L77.7,69.49c4.73-.69,14.51-3.73,14.51-17.07v-17H92.15l0.06-.64V17.29C92.21-.29,75.18,0,75.18,0"/><path class="cls-1" d="M414.29,0h-40C356.75,0,357,17,357,17V81s-0.29,17,17.29,17h30.45v0h21.32a5.59,5.59,0,1,0,0-11.17H407.35v0h-33s-5.76,0-5.76-5.84V17c0-5.86,5.76-5.84,5.76-5.84h40s5.76,0,5.76,5.84v8.82h11.53V17s0.29-17-17.29-17"/><path class="cls-1" d="M581,225c5.08,0,8.94,3.41,8.94,8.55V255.4h-6.63V233.91a2.54,2.54,0,0,0-2.57-2.57H566.25V255.4h-6.63V225H581Zm-47.39,12.35h11.19v-3.47a2.64,2.64,0,0,0-2.64-2.57H530.38a2.59,2.59,0,0,0-2.64,2.57v12.54a2.61,2.61,0,0,0,2.64,2.64h20v6.3H530.12c-5.15,0-9-3.54-9-8.68V233.66c0-5.08,3.86-8.62,9-8.62h12.35c5.08,0,9,3.54,9,8.62V243H533.66v-5.66Zm-36.45,18h2.44a4.82,4.82,0,0,0,4.24-1.93c1.93-2.57,5.34-7.46,8.23-11.64a8,8,0,0,0,1.48-5.08V225H507v11.51a3.07,3.07,0,0,1-.58,1.74c-1.67,2.64-4.82,7.2-6.75,10a1.78,1.78,0,0,1-1.29.9,1.68,1.68,0,0,1-1.29-.9c-1.93-2.76-5.15-7.33-6.82-10a3.31,3.31,0,0,1-.51-1.74V225h-6.56v11.71a8.82,8.82,0,0,0,1.29,5.08c3,4.18,6.37,8.94,8.49,11.64a4.86,4.86,0,0,0,4.18,1.93m-39.29-24.06h8.56a2.63,2.63,0,0,1,2.64,2.57v12.61a2.63,2.63,0,0,1-2.64,2.57H454.64a2.59,2.59,0,0,1-2.64-2.57V225.36c-3.35.84-6.63,3.22-6.63,8.36v13.06c0,5.08,3.86,8.62,9,8.62h12.35c5.08,0,9-3.54,9-8.62V233.66c0-5.08-3.92-8.62-9-8.62h-8.81v6.3ZM413.42,255.4H406.8V211.66h6.63V225h14.79c5.08,0,8.94,3.41,8.94,8.55V255.4h-6.63V233.91a2.54,2.54,0,0,0-2.57-2.57H413.42V255.4Zm-21.73-6.3H377.16a2.59,2.59,0,0,1-2.57-2.64V234a2.63,2.63,0,0,1,2.57-2.64h8.62V225H376.9c-5.08,0-8.94,3.6-8.94,8.68v13c0,5.15,3.86,8.68,8.94,8.68h21.42V211.66H391.7v37.43ZM350.81,225c5.08,0,8.94,3.41,8.94,8.55V255.4h-6.63V233.91a2.54,2.54,0,0,0-2.57-2.57H336V255.4h-6.63V225h21.42Zm-36.45,0H321V255.4h-6.63V225Zm-35.13-1.22a3.31,3.31,0,0,1,3.35-3.28h14.6a3.31,3.31,0,0,1,3.34,3.28V225h6.63v-1.16a9.49,9.49,0,0,0-9.71-9.65H282.32a9.49,9.49,0,0,0-9.71,9.65v21.8a9.51,9.51,0,0,0,9.71,9.71h23.09v-6.3H282.58a3.32,3.32,0,0,1-3.35-3.34v-7.2h19v-6.17h-19v-8.55ZM238.58,225c5.08,0,8.94,3.41,8.94,8.55V255.4H240.9V233.91a2.54,2.54,0,0,0-2.57-2.57H223.79V255.4h-6.63V225h21.42ZM191,231.34h8.55a2.63,2.63,0,0,1,2.64,2.57v12.61a2.63,2.63,0,0,1-2.64,2.57H187.75a2.59,2.59,0,0,1-2.64-2.57V225.36c-3.35.84-6.63,3.22-6.63,8.36v13.06c0,5.08,3.86,8.62,9,8.62h12.35c5.08,0,9-3.54,9-8.62V233.66c0-5.08-3.92-8.62-9-8.62H191v6.3ZM170.27,225v21.81c0,5.15-3.92,8.55-9,8.55H148.92c-5.08,0-9-3.41-9-8.55V225h6.63v21.48a2.54,2.54,0,0,0,2.57,2.57h12a2.54,2.54,0,0,0,2.57-2.57V225h6.63ZM118,212.94h6.63v33.38a2.73,2.73,0,0,0,2.7,2.76h5.47v6.3H127c-5.15,0-9-3.41-9-8.49v-34Zm-26,18.4h8.55a2.63,2.63,0,0,1,2.64,2.57v12.61a2.63,2.63,0,0,1-2.64,2.57H88.71a2.59,2.59,0,0,1-2.64-2.57V225.36c-3.34.84-6.63,3.22-6.63,8.36v13.06c0,5.08,3.86,8.62,9,8.62H100.8c5.08,0,9-3.54,9-8.62V233.66c0-5.08-3.92-8.62-9-8.62H92v6.3ZM55.53,255.4H58a4.82,4.82,0,0,0,4.24-1.93c1.93-2.57,5.34-7.46,8.23-11.64a8,8,0,0,0,1.48-5.08V225H65.37v11.51a3.08,3.08,0,0,1-.58,1.74c-1.67,2.64-4.82,7.2-6.75,10a1.78,1.78,0,0,1-1.29.9,1.68,1.68,0,0,1-1.29-.9c-1.93-2.76-5.15-7.33-6.82-10a3.33,3.33,0,0,1-.51-1.74V225H41.57v11.71a8.82,8.82,0,0,0,1.29,5.08c3,4.18,6.37,8.94,8.49,11.64a4.86,4.86,0,0,0,4.18,1.93M7.08,223.81a3.31,3.31,0,0,1,3.34-3.28H25a3.31,3.31,0,0,1,3.35,3.28V225H35v-1.16a9.49,9.49,0,0,0-9.71-9.65H10.17a9.49,9.49,0,0,0-9.71,9.65v21.8a9.51,9.51,0,0,0,9.71,9.71H33.26v-6.3H10.42a3.32,3.32,0,0,1-3.34-3.34v-7.2h19v-6.17h-19v-8.55Z"/><path class="cls-2" d="M571.54,169.33a2.59,2.59,0,0,0,2.64,2.57H586a2.64,2.64,0,0,0,2.64-2.57V159a2.64,2.64,0,0,0-2.64-2.57h-8.55v-6.3h8.81c5.08,0,9,3.54,9,8.62v10.8c0,5.08-3.92,8.62-9,8.62H573.92c-5.15,0-9-3.54-9-8.62V144.51c0-5.15,4.31-8.75,9.46-8.75h15.18v6.3H574.18a2.73,2.73,0,0,0-2.64,2.64v24.64Zm-13,8.88h-6.63V156.73a2.59,2.59,0,0,0-2.64-2.57h-6.43v-6.3h6.69c5.15,0,9,3.54,9,8.62v21.74Zm-48-21.42a2.61,2.61,0,0,1,2.64-2.64h15.37a2.63,2.63,0,0,1,2.64,2.57v12.61a2.63,2.63,0,0,1-2.64,2.57H513.1a2.59,2.59,0,0,1-2.64-2.57V156.79Zm-6.63-.26v13.06c0,5.08,3.86,8.62,9,8.62h15.89c5.08,0,9-3.54,9-8.62V156.47c0-5.08-3.92-8.62-9-8.62H512.84c-5.15,0-9,3.54-9,8.68m-35.67-2.38v-6.3h20.2c5.08,0,9,3.54,9,8.62v0.71c0,5.15-4.12,8.49-9.26,8.49H476.27a2.74,2.74,0,0,0-2.64,2.64v3.6h24.06v6.3H467v-10c0-5.15,4.12-8.68,9.26-8.68H488.1a2.68,2.68,0,0,0,2.64-2.77,2.57,2.57,0,0,0-2.64-2.64H468.16Zm-31.71-6.3c5.08,0,8.94,3.41,8.94,8.55v21.81h-6.63V156.73a2.54,2.54,0,0,0-2.57-2.57H421.66v24.06H415V147.85h21.42ZM390.8,160.2H402v-3.47a2.63,2.63,0,0,0-2.64-2.57H387.52a2.59,2.59,0,0,0-2.64,2.57v12.54a2.61,2.61,0,0,0,2.64,2.64h20v6.3H387.27c-5.15,0-9-3.54-9-8.68V156.47c0-5.08,3.86-8.62,9-8.62h12.35c5.08,0,9,3.54,9,8.62v9.39H390.8V160.2Zm-42.69-6h14.54a2.59,2.59,0,0,1,2.57,2.64v12.48a2.64,2.64,0,0,1-2.57,2.64H354v6.3h8.88c5.08,0,8.94-3.6,8.94-8.68v-13c0-5.15-3.86-8.68-8.94-8.68H341.49v43.42h6.63V154.15Zm-35.29-10.81h12a3.31,3.31,0,0,1,3.34,3.28v22.06a3.32,3.32,0,0,1-3.34,3.35h-14.6a3.32,3.32,0,0,1-3.34-3.35V137.37c-5.47,1.35-6.63,5.08-6.63,8.36V168.5a9.51,9.51,0,0,0,9.71,9.71h15.11a9.51,9.51,0,0,0,9.71-9.71v-21.8a9.49,9.49,0,0,0-9.71-9.65H312.82v6.3Zm-43.09,4.5c5.08,0,8.94,3.41,8.94,8.55v21.81H272V156.73a2.54,2.54,0,0,0-2.57-2.57H254.93v24.06h-6.63V147.85h21.42ZM235,178.21h6.63V156.47c0-5.08-3.92-8.62-9-8.62H220.25c-5.15,0-9,3.54-9,8.62v13.06c0,5.15,3.86,8.68,9,8.68h8.81v-6.3H220.5a2.61,2.61,0,0,1-2.64-2.64V156.73a2.59,2.59,0,0,1,2.64-2.57h11.84a2.63,2.63,0,0,1,2.64,2.57v21.48Zm-48-18H198.2v-3.47a2.63,2.63,0,0,0-2.64-2.57H183.73a2.59,2.59,0,0,0-2.64,2.57v12.54a2.61,2.61,0,0,0,2.64,2.64h20v6.3H183.47c-5.15,0-9-3.54-9-8.68V156.47c0-5.08,3.86-8.62,9-8.62h12.35c5.08,0,9,3.54,9,8.62v9.39H187V160.2Zm-42.69-6h14.54a2.59,2.59,0,0,1,2.57,2.64v12.48a2.63,2.63,0,0,1-2.57,2.64h-8.62v6.3h8.88c5.08,0,8.94-3.6,8.94-8.68v-13c0-5.15-3.86-8.68-8.94-8.68H137.69v43.42h6.63V154.15Zm-31,0h8.55a2.63,2.63,0,0,1,2.64,2.57v12.61a2.63,2.63,0,0,1-2.64,2.57H110a2.59,2.59,0,0,1-2.64-2.57V148.17c-3.34.84-6.63,3.22-6.63,8.36v13.06c0,5.08,3.86,8.62,9,8.62h12.35c5.08,0,9-3.54,9-8.62V156.47c0-5.08-3.92-8.62-9-8.62H113.3v6.3ZM77.41,178.21H84V156.73a2.59,2.59,0,0,1,2.64-2.57h9v-6.3H86.41c-5.15,0-9,3.54-9,8.62v21.74Zm-6.58-30.36v21.81c0,5.15-3.92,8.55-9,8.55H49.47c-5.08,0-9-3.41-9-8.55V147.85h6.63v21.48a2.54,2.54,0,0,0,2.57,2.57h12a2.54,2.54,0,0,0,2.57-2.57V147.85h6.63ZM7.08,146.63a3.31,3.31,0,0,1,3.34-3.28H25a3.31,3.31,0,0,1,3.35,3.28v1.22H35v-1.16A9.49,9.49,0,0,0,25.28,137H10.17a9.49,9.49,0,0,0-9.71,9.65v21.8a9.51,9.51,0,0,0,9.71,9.71H33.26v-6.3H10.42a3.32,3.32,0,0,1-3.34-3.34v-7.2h19v-6.17h-19v-8.55Z"/></svg>